%TF.GenerationSoftware,KiCad,Pcbnew,(7.0.0)*%
%TF.CreationDate,2023-04-22T11:09:56+02:00*%
%TF.ProjectId,PCB KiCad,50434220-4b69-4436-9164-2e6b69636164,rev?*%
%TF.SameCoordinates,Original*%
%TF.FileFunction,Drillmap*%
%TF.FilePolarity,Positive*%
%FSLAX45Y45*%
G04 Gerber Fmt 4.5, Leading zero omitted, Abs format (unit mm)*
G04 Created by KiCad (PCBNEW (7.0.0)) date 2023-04-22 11:09:56*
%MOMM*%
%LPD*%
G01*
G04 APERTURE LIST*
%ADD10C,0.200000*%
%ADD11C,0.040000*%
%ADD12C,0.100000*%
%ADD13C,0.110000*%
G04 APERTURE END LIST*
D10*
X4300000Y-3000000D02*
X4300000Y-14600000D01*
X12300000Y-14600000D02*
X12300000Y-3000000D01*
X12100000Y-14800000D02*
G75*
G03*
X12300000Y-14600000I0J200000D01*
G01*
X12300000Y-3000000D02*
G75*
G03*
X12100000Y-2800000I-200000J0D01*
G01*
X4500000Y-2800000D02*
G75*
G03*
X4300000Y-3000000I0J-200000D01*
G01*
X4500000Y-14800000D02*
X12100000Y-14800000D01*
X4300000Y-14600000D02*
G75*
G03*
X4500000Y-14800000I200000J0D01*
G01*
X12100000Y-2800000D02*
X4500000Y-2800000D01*
D11*
X4661000Y-10613000D02*
X4701000Y-10653000D01*
X4701000Y-10613000D02*
X4661000Y-10653000D01*
X4672000Y-10040000D02*
X4712000Y-10080000D01*
X4712000Y-10040000D02*
X4672000Y-10080000D01*
X4672000Y-11087000D02*
X4712000Y-11127000D01*
X4712000Y-11087000D02*
X4672000Y-11127000D01*
X4680000Y-11439000D02*
X4720000Y-11479000D01*
X4720000Y-11439000D02*
X4680000Y-11479000D01*
X4918000Y-11534000D02*
X4958000Y-11574000D01*
X4958000Y-11534000D02*
X4918000Y-11574000D01*
X4919000Y-11018000D02*
X4959000Y-11058000D01*
X4959000Y-11018000D02*
X4919000Y-11058000D01*
X4921000Y-9901000D02*
X4961000Y-9941000D01*
X4961000Y-9901000D02*
X4921000Y-9941000D01*
X4932000Y-10321000D02*
X4972000Y-10361000D01*
X4972000Y-10321000D02*
X4932000Y-10361000D01*
X4943000Y-12277000D02*
X4983000Y-12317000D01*
X4983000Y-12277000D02*
X4943000Y-12317000D01*
X4958000Y-11821000D02*
X4998000Y-11861000D01*
X4998000Y-11821000D02*
X4958000Y-11861000D01*
X4961000Y-11354000D02*
X5001000Y-11394000D01*
X5001000Y-11354000D02*
X4961000Y-11394000D01*
X5328000Y-11656000D02*
X5368000Y-11696000D01*
X5368000Y-11656000D02*
X5328000Y-11696000D01*
X5877500Y-10355000D02*
X5917500Y-10395000D01*
X5917500Y-10355000D02*
X5877500Y-10395000D01*
X6062000Y-9206000D02*
X6102000Y-9246000D01*
X6102000Y-9206000D02*
X6062000Y-9246000D01*
X6080000Y-10646000D02*
X6120000Y-10686000D01*
X6120000Y-10646000D02*
X6080000Y-10686000D01*
X6085000Y-11022500D02*
X6125000Y-11062500D01*
X6125000Y-11022500D02*
X6085000Y-11062500D01*
X6094000Y-11249000D02*
X6134000Y-11289000D01*
X6134000Y-11249000D02*
X6094000Y-11289000D01*
X6449000Y-14625000D02*
X6489000Y-14665000D01*
X6489000Y-14625000D02*
X6449000Y-14665000D01*
X6536000Y-13039000D02*
X6576000Y-13079000D01*
X6576000Y-13039000D02*
X6536000Y-13079000D01*
X6555000Y-8657000D02*
X6595000Y-8697000D01*
X6595000Y-8657000D02*
X6555000Y-8697000D01*
X6563000Y-7216000D02*
X6603000Y-7256000D01*
X6603000Y-7216000D02*
X6563000Y-7256000D01*
X6703000Y-3155000D02*
X6743000Y-3195000D01*
X6743000Y-3155000D02*
X6703000Y-3195000D01*
X6854000Y-9236000D02*
X6894000Y-9276000D01*
X6894000Y-9236000D02*
X6854000Y-9276000D01*
X6962000Y-7613000D02*
X7002000Y-7653000D01*
X7002000Y-7613000D02*
X6962000Y-7653000D01*
X7014000Y-8523000D02*
X7054000Y-8563000D01*
X7054000Y-8523000D02*
X7014000Y-8563000D01*
X7133000Y-10734000D02*
X7173000Y-10774000D01*
X7173000Y-10734000D02*
X7133000Y-10774000D01*
X7301000Y-13731000D02*
X7341000Y-13771000D01*
X7341000Y-13731000D02*
X7301000Y-13771000D01*
X7320000Y-12904000D02*
X7360000Y-12944000D01*
X7360000Y-12904000D02*
X7320000Y-12944000D01*
X7496000Y-11655000D02*
X7536000Y-11695000D01*
X7536000Y-11655000D02*
X7496000Y-11695000D01*
X7680000Y-10770000D02*
X7720000Y-10810000D01*
X7720000Y-10770000D02*
X7680000Y-10810000D01*
X7763000Y-14133000D02*
X7803000Y-14173000D01*
X7803000Y-14133000D02*
X7763000Y-14173000D01*
X7790000Y-11375000D02*
X7830000Y-11415000D01*
X7830000Y-11375000D02*
X7790000Y-11415000D01*
X7858000Y-12733000D02*
X7898000Y-12773000D01*
X7898000Y-12733000D02*
X7858000Y-12773000D01*
X7904000Y-12210000D02*
X7944000Y-12250000D01*
X7944000Y-12210000D02*
X7904000Y-12250000D01*
X7986000Y-12559000D02*
X8026000Y-12599000D01*
X8026000Y-12559000D02*
X7986000Y-12599000D01*
X8041000Y-6417000D02*
X8081000Y-6457000D01*
X8081000Y-6417000D02*
X8041000Y-6457000D01*
X8074000Y-12896000D02*
X8114000Y-12936000D01*
X8114000Y-12896000D02*
X8074000Y-12936000D01*
X8086000Y-13421000D02*
X8126000Y-13461000D01*
X8126000Y-13421000D02*
X8086000Y-13461000D01*
X8107000Y-12417000D02*
X8147000Y-12457000D01*
X8147000Y-12417000D02*
X8107000Y-12457000D01*
X8135000Y-3560000D02*
X8175000Y-3600000D01*
X8175000Y-3560000D02*
X8135000Y-3600000D01*
X8294000Y-14667000D02*
X8334000Y-14707000D01*
X8334000Y-14667000D02*
X8294000Y-14707000D01*
X8346000Y-13908000D02*
X8386000Y-13948000D01*
X8386000Y-13908000D02*
X8346000Y-13948000D01*
X8437500Y-11285000D02*
X8477500Y-11325000D01*
X8477500Y-11285000D02*
X8437500Y-11325000D01*
X8452000Y-10994000D02*
X8492000Y-11034000D01*
X8492000Y-10994000D02*
X8452000Y-11034000D01*
X8531000Y-6882000D02*
X8571000Y-6922000D01*
X8571000Y-6882000D02*
X8531000Y-6922000D01*
X8579000Y-13434000D02*
X8619000Y-13474000D01*
X8619000Y-13434000D02*
X8579000Y-13474000D01*
X8817000Y-10467000D02*
X8857000Y-10507000D01*
X8857000Y-10467000D02*
X8817000Y-10507000D01*
X8827000Y-10893000D02*
X8867000Y-10933000D01*
X8867000Y-10893000D02*
X8827000Y-10933000D01*
X9093000Y-3720000D02*
X9133000Y-3760000D01*
X9133000Y-3720000D02*
X9093000Y-3760000D01*
X9262000Y-2979000D02*
X9302000Y-3019000D01*
X9302000Y-2979000D02*
X9262000Y-3019000D01*
X9274000Y-14200000D02*
X9314000Y-14240000D01*
X9314000Y-14200000D02*
X9274000Y-14240000D01*
X9277000Y-13789000D02*
X9317000Y-13829000D01*
X9317000Y-13789000D02*
X9277000Y-13829000D01*
X9430000Y-3316000D02*
X9470000Y-3356000D01*
X9470000Y-3316000D02*
X9430000Y-3356000D01*
X9681000Y-12996000D02*
X9721000Y-13036000D01*
X9721000Y-12996000D02*
X9681000Y-13036000D01*
X10113000Y-3794000D02*
X10153000Y-3834000D01*
X10153000Y-3794000D02*
X10113000Y-3834000D01*
X10119000Y-2949000D02*
X10159000Y-2989000D01*
X10159000Y-2949000D02*
X10119000Y-2989000D01*
X10256000Y-13823000D02*
X10296000Y-13863000D01*
X10296000Y-13823000D02*
X10256000Y-13863000D01*
X10262000Y-9206000D02*
X10302000Y-9246000D01*
X10302000Y-9206000D02*
X10262000Y-9246000D01*
X10265000Y-10514000D02*
X10305000Y-10554000D01*
X10305000Y-10514000D02*
X10265000Y-10554000D01*
X10290000Y-9923000D02*
X10330000Y-9963000D01*
X10330000Y-9923000D02*
X10290000Y-9963000D01*
X10366000Y-13020000D02*
X10406000Y-13060000D01*
X10406000Y-13020000D02*
X10366000Y-13060000D01*
X10422000Y-9439000D02*
X10462000Y-9479000D01*
X10462000Y-9439000D02*
X10422000Y-9479000D01*
X10452000Y-8725000D02*
X10492000Y-8765000D01*
X10492000Y-8725000D02*
X10452000Y-8765000D01*
X10620000Y-14160000D02*
X10660000Y-14200000D01*
X10660000Y-14160000D02*
X10620000Y-14200000D01*
X10680000Y-9846000D02*
X10720000Y-9886000D01*
X10720000Y-9846000D02*
X10680000Y-9886000D01*
X10745000Y-14162500D02*
X10785000Y-14202500D01*
X10785000Y-14162500D02*
X10745000Y-14202500D01*
X10763000Y-10516000D02*
X10803000Y-10556000D01*
X10803000Y-10516000D02*
X10763000Y-10556000D01*
X10815000Y-3811000D02*
X10855000Y-3851000D01*
X10855000Y-3811000D02*
X10815000Y-3851000D01*
X10852500Y-14165000D02*
X10892500Y-14205000D01*
X10892500Y-14165000D02*
X10852500Y-14205000D01*
X10906000Y-13011000D02*
X10946000Y-13051000D01*
X10946000Y-13011000D02*
X10906000Y-13051000D01*
X10960000Y-13496000D02*
X11000000Y-13536000D01*
X11000000Y-13496000D02*
X10960000Y-13536000D01*
X10978000Y-8595000D02*
X11018000Y-8635000D01*
X11018000Y-8595000D02*
X10978000Y-8635000D01*
X10982500Y-14167500D02*
X11022500Y-14207500D01*
X11022500Y-14167500D02*
X10982500Y-14207500D01*
X10985000Y-9361000D02*
X11025000Y-9401000D01*
X11025000Y-9361000D02*
X10985000Y-9401000D01*
X11136000Y-9614000D02*
X11176000Y-9654000D01*
X11176000Y-9614000D02*
X11136000Y-9654000D01*
X11181000Y-14508000D02*
X11221000Y-14548000D01*
X11221000Y-14508000D02*
X11181000Y-14548000D01*
X11262000Y-10310000D02*
X11302000Y-10350000D01*
X11302000Y-10310000D02*
X11262000Y-10350000D01*
X11290000Y-9075000D02*
X11330000Y-9115000D01*
X11330000Y-9075000D02*
X11290000Y-9115000D01*
X11318000Y-9559000D02*
X11358000Y-9599000D01*
X11358000Y-9559000D02*
X11318000Y-9599000D01*
X11324000Y-11585000D02*
X11364000Y-11625000D01*
X11364000Y-11585000D02*
X11324000Y-11625000D01*
X11350000Y-10754000D02*
X11390000Y-10794000D01*
X11390000Y-10754000D02*
X11350000Y-10794000D01*
X11450000Y-3612000D02*
X11490000Y-3652000D01*
X11490000Y-3612000D02*
X11450000Y-3652000D01*
X11547000Y-11567000D02*
X11587000Y-11607000D01*
X11587000Y-11567000D02*
X11547000Y-11607000D01*
X11570000Y-9763000D02*
X11610000Y-9803000D01*
X11610000Y-9763000D02*
X11570000Y-9803000D01*
X11721000Y-11583000D02*
X11761000Y-11623000D01*
X11761000Y-11583000D02*
X11721000Y-11623000D01*
X11891000Y-11603000D02*
X11931000Y-11643000D01*
X11931000Y-11603000D02*
X11891000Y-11643000D01*
X11991000Y-13789000D02*
X12031000Y-13829000D01*
X12031000Y-13789000D02*
X11991000Y-13829000D01*
X11999000Y-12974000D02*
X12039000Y-13014000D01*
X12039000Y-12974000D02*
X11999000Y-13014000D01*
X12092000Y-10352000D02*
X12132000Y-10392000D01*
X12132000Y-10352000D02*
X12092000Y-10392000D01*
D12*
X4735000Y-11915000D02*
G75*
G03*
X4735000Y-11915000I-50000J0D01*
G01*
X4735000Y-12169000D02*
G75*
G03*
X4735000Y-12169000I-50000J0D01*
G01*
X4735000Y-12423000D02*
G75*
G03*
X4735000Y-12423000I-50000J0D01*
G01*
X4735000Y-12677000D02*
G75*
G03*
X4735000Y-12677000I-50000J0D01*
G01*
X4735000Y-12931000D02*
G75*
G03*
X4735000Y-12931000I-50000J0D01*
G01*
X4735000Y-13185000D02*
G75*
G03*
X4735000Y-13185000I-50000J0D01*
G01*
X4735000Y-13439000D02*
G75*
G03*
X4735000Y-13439000I-50000J0D01*
G01*
X4735000Y-13693000D02*
G75*
G03*
X4735000Y-13693000I-50000J0D01*
G01*
X6501500Y-9033000D02*
G75*
G03*
X6501500Y-9033000I-50000J0D01*
G01*
X6566776Y-13467224D02*
G75*
G03*
X6566776Y-13467224I-50000J0D01*
G01*
X6566776Y-13721224D02*
G75*
G03*
X6566776Y-13721224I-50000J0D01*
G01*
X6566776Y-13975224D02*
G75*
G03*
X6566776Y-13975224I-50000J0D01*
G01*
X6566776Y-14229224D02*
G75*
G03*
X6566776Y-14229224I-50000J0D01*
G01*
X6755500Y-9033000D02*
G75*
G03*
X6755500Y-9033000I-50000J0D01*
G01*
X7009500Y-9033000D02*
G75*
G03*
X7009500Y-9033000I-50000J0D01*
G01*
X7263500Y-9033000D02*
G75*
G03*
X7263500Y-9033000I-50000J0D01*
G01*
X7415500Y-4207000D02*
G75*
G03*
X7415500Y-4207000I-50000J0D01*
G01*
X7517500Y-9033000D02*
G75*
G03*
X7517500Y-9033000I-50000J0D01*
G01*
X7669500Y-4207000D02*
G75*
G03*
X7669500Y-4207000I-50000J0D01*
G01*
X7771500Y-9033000D02*
G75*
G03*
X7771500Y-9033000I-50000J0D01*
G01*
X7923500Y-4207000D02*
G75*
G03*
X7923500Y-4207000I-50000J0D01*
G01*
X8025500Y-9033000D02*
G75*
G03*
X8025500Y-9033000I-50000J0D01*
G01*
X8038000Y-11950000D02*
G75*
G03*
X8038000Y-11950000I-50000J0D01*
G01*
X8177500Y-4207000D02*
G75*
G03*
X8177500Y-4207000I-50000J0D01*
G01*
X8279500Y-9033000D02*
G75*
G03*
X8279500Y-9033000I-50000J0D01*
G01*
X8292000Y-11950000D02*
G75*
G03*
X8292000Y-11950000I-50000J0D01*
G01*
X8431500Y-4207000D02*
G75*
G03*
X8431500Y-4207000I-50000J0D01*
G01*
X8533500Y-9033000D02*
G75*
G03*
X8533500Y-9033000I-50000J0D01*
G01*
X8546000Y-11950000D02*
G75*
G03*
X8546000Y-11950000I-50000J0D01*
G01*
X8685500Y-4207000D02*
G75*
G03*
X8685500Y-4207000I-50000J0D01*
G01*
X8787500Y-9033000D02*
G75*
G03*
X8787500Y-9033000I-50000J0D01*
G01*
X8800000Y-11950000D02*
G75*
G03*
X8800000Y-11950000I-50000J0D01*
G01*
X8939500Y-4207000D02*
G75*
G03*
X8939500Y-4207000I-50000J0D01*
G01*
X9193500Y-4207000D02*
G75*
G03*
X9193500Y-4207000I-50000J0D01*
G01*
X9193500Y-9033000D02*
G75*
G03*
X9193500Y-9033000I-50000J0D01*
G01*
X9447500Y-9033000D02*
G75*
G03*
X9447500Y-9033000I-50000J0D01*
G01*
X9701500Y-4207000D02*
G75*
G03*
X9701500Y-4207000I-50000J0D01*
G01*
X9701500Y-9033000D02*
G75*
G03*
X9701500Y-9033000I-50000J0D01*
G01*
X9955500Y-4207000D02*
G75*
G03*
X9955500Y-4207000I-50000J0D01*
G01*
X9955500Y-9033000D02*
G75*
G03*
X9955500Y-9033000I-50000J0D01*
G01*
X10126776Y-13469224D02*
G75*
G03*
X10126776Y-13469224I-50000J0D01*
G01*
X10126776Y-13723224D02*
G75*
G03*
X10126776Y-13723224I-50000J0D01*
G01*
X10126776Y-13977224D02*
G75*
G03*
X10126776Y-13977224I-50000J0D01*
G01*
X10126776Y-14231224D02*
G75*
G03*
X10126776Y-14231224I-50000J0D01*
G01*
X10209500Y-4207000D02*
G75*
G03*
X10209500Y-4207000I-50000J0D01*
G01*
X10209500Y-9033000D02*
G75*
G03*
X10209500Y-9033000I-50000J0D01*
G01*
X10463500Y-4207000D02*
G75*
G03*
X10463500Y-4207000I-50000J0D01*
G01*
X10463500Y-9033000D02*
G75*
G03*
X10463500Y-9033000I-50000J0D01*
G01*
X10717500Y-4207000D02*
G75*
G03*
X10717500Y-4207000I-50000J0D01*
G01*
X10717500Y-9033000D02*
G75*
G03*
X10717500Y-9033000I-50000J0D01*
G01*
X10971500Y-4207000D02*
G75*
G03*
X10971500Y-4207000I-50000J0D01*
G01*
X10971500Y-9033000D02*
G75*
G03*
X10971500Y-9033000I-50000J0D01*
G01*
D13*
X5347500Y-3125000D02*
X5347500Y-3235000D01*
X5292500Y-3180000D02*
X5402500Y-3180000D01*
X5347500Y-3575000D02*
X5347500Y-3685000D01*
X5292500Y-3630000D02*
X5402500Y-3630000D01*
X5997500Y-3125000D02*
X5997500Y-3235000D01*
X5942500Y-3180000D02*
X6052500Y-3180000D01*
X5997500Y-3575000D02*
X5997500Y-3685000D01*
X5942500Y-3630000D02*
X6052500Y-3630000D01*
X6370000Y-3117500D02*
X6370000Y-3227500D01*
X6315000Y-3172500D02*
X6425000Y-3172500D01*
X6370000Y-3567500D02*
X6370000Y-3677500D01*
X6315000Y-3622500D02*
X6425000Y-3622500D01*
X7020000Y-3117500D02*
X7020000Y-3227500D01*
X6965000Y-3172500D02*
X7075000Y-3172500D01*
X7020000Y-3567500D02*
X7020000Y-3677500D01*
X6965000Y-3622500D02*
X7075000Y-3622500D01*
D10*
X4537619Y-15103476D02*
X4537619Y-14903476D01*
X4537619Y-14903476D02*
X4585238Y-14903476D01*
X4585238Y-14903476D02*
X4613810Y-14913000D01*
X4613810Y-14913000D02*
X4632857Y-14932048D01*
X4632857Y-14932048D02*
X4642381Y-14951095D01*
X4642381Y-14951095D02*
X4651905Y-14989190D01*
X4651905Y-14989190D02*
X4651905Y-15017762D01*
X4651905Y-15017762D02*
X4642381Y-15055857D01*
X4642381Y-15055857D02*
X4632857Y-15074905D01*
X4632857Y-15074905D02*
X4613810Y-15093952D01*
X4613810Y-15093952D02*
X4585238Y-15103476D01*
X4585238Y-15103476D02*
X4537619Y-15103476D01*
X4737619Y-15103476D02*
X4737619Y-14970143D01*
X4737619Y-15008238D02*
X4747143Y-14989190D01*
X4747143Y-14989190D02*
X4756667Y-14979667D01*
X4756667Y-14979667D02*
X4775714Y-14970143D01*
X4775714Y-14970143D02*
X4794762Y-14970143D01*
X4861429Y-15103476D02*
X4861429Y-14970143D01*
X4861429Y-14903476D02*
X4851905Y-14913000D01*
X4851905Y-14913000D02*
X4861429Y-14922524D01*
X4861429Y-14922524D02*
X4870952Y-14913000D01*
X4870952Y-14913000D02*
X4861429Y-14903476D01*
X4861429Y-14903476D02*
X4861429Y-14922524D01*
X4985238Y-15103476D02*
X4966191Y-15093952D01*
X4966191Y-15093952D02*
X4956667Y-15074905D01*
X4956667Y-15074905D02*
X4956667Y-14903476D01*
X5090000Y-15103476D02*
X5070952Y-15093952D01*
X5070952Y-15093952D02*
X5061429Y-15074905D01*
X5061429Y-15074905D02*
X5061429Y-14903476D01*
X5286191Y-15103476D02*
X5286191Y-14903476D01*
X5286191Y-14903476D02*
X5352857Y-15046333D01*
X5352857Y-15046333D02*
X5419524Y-14903476D01*
X5419524Y-14903476D02*
X5419524Y-15103476D01*
X5600476Y-15103476D02*
X5600476Y-14998714D01*
X5600476Y-14998714D02*
X5590952Y-14979667D01*
X5590952Y-14979667D02*
X5571905Y-14970143D01*
X5571905Y-14970143D02*
X5533810Y-14970143D01*
X5533810Y-14970143D02*
X5514762Y-14979667D01*
X5600476Y-15093952D02*
X5581429Y-15103476D01*
X5581429Y-15103476D02*
X5533810Y-15103476D01*
X5533810Y-15103476D02*
X5514762Y-15093952D01*
X5514762Y-15093952D02*
X5505238Y-15074905D01*
X5505238Y-15074905D02*
X5505238Y-15055857D01*
X5505238Y-15055857D02*
X5514762Y-15036810D01*
X5514762Y-15036810D02*
X5533810Y-15027286D01*
X5533810Y-15027286D02*
X5581429Y-15027286D01*
X5581429Y-15027286D02*
X5600476Y-15017762D01*
X5695714Y-14970143D02*
X5695714Y-15170143D01*
X5695714Y-14979667D02*
X5714762Y-14970143D01*
X5714762Y-14970143D02*
X5752857Y-14970143D01*
X5752857Y-14970143D02*
X5771905Y-14979667D01*
X5771905Y-14979667D02*
X5781429Y-14989190D01*
X5781429Y-14989190D02*
X5790952Y-15008238D01*
X5790952Y-15008238D02*
X5790952Y-15065381D01*
X5790952Y-15065381D02*
X5781429Y-15084429D01*
X5781429Y-15084429D02*
X5771905Y-15093952D01*
X5771905Y-15093952D02*
X5752857Y-15103476D01*
X5752857Y-15103476D02*
X5714762Y-15103476D01*
X5714762Y-15103476D02*
X5695714Y-15093952D01*
X5876667Y-15084429D02*
X5886190Y-15093952D01*
X5886190Y-15093952D02*
X5876667Y-15103476D01*
X5876667Y-15103476D02*
X5867143Y-15093952D01*
X5867143Y-15093952D02*
X5876667Y-15084429D01*
X5876667Y-15084429D02*
X5876667Y-15103476D01*
X5876667Y-14979667D02*
X5886190Y-14989190D01*
X5886190Y-14989190D02*
X5876667Y-14998714D01*
X5876667Y-14998714D02*
X5867143Y-14989190D01*
X5867143Y-14989190D02*
X5876667Y-14979667D01*
X5876667Y-14979667D02*
X5876667Y-14998714D01*
D11*
X4250000Y-15430000D02*
X4290000Y-15470000D01*
X4290000Y-15430000D02*
X4250000Y-15470000D01*
D10*
X4575714Y-15323476D02*
X4594762Y-15323476D01*
X4594762Y-15323476D02*
X4613810Y-15333000D01*
X4613810Y-15333000D02*
X4623333Y-15342524D01*
X4623333Y-15342524D02*
X4632857Y-15361571D01*
X4632857Y-15361571D02*
X4642381Y-15399667D01*
X4642381Y-15399667D02*
X4642381Y-15447286D01*
X4642381Y-15447286D02*
X4632857Y-15485381D01*
X4632857Y-15485381D02*
X4623333Y-15504429D01*
X4623333Y-15504429D02*
X4613810Y-15513952D01*
X4613810Y-15513952D02*
X4594762Y-15523476D01*
X4594762Y-15523476D02*
X4575714Y-15523476D01*
X4575714Y-15523476D02*
X4556667Y-15513952D01*
X4556667Y-15513952D02*
X4547143Y-15504429D01*
X4547143Y-15504429D02*
X4537619Y-15485381D01*
X4537619Y-15485381D02*
X4528095Y-15447286D01*
X4528095Y-15447286D02*
X4528095Y-15399667D01*
X4528095Y-15399667D02*
X4537619Y-15361571D01*
X4537619Y-15361571D02*
X4547143Y-15342524D01*
X4547143Y-15342524D02*
X4556667Y-15333000D01*
X4556667Y-15333000D02*
X4575714Y-15323476D01*
X4728095Y-15504429D02*
X4737619Y-15513952D01*
X4737619Y-15513952D02*
X4728095Y-15523476D01*
X4728095Y-15523476D02*
X4718572Y-15513952D01*
X4718572Y-15513952D02*
X4728095Y-15504429D01*
X4728095Y-15504429D02*
X4728095Y-15523476D01*
X4909048Y-15390143D02*
X4909048Y-15523476D01*
X4861429Y-15313952D02*
X4813810Y-15456810D01*
X4813810Y-15456810D02*
X4937619Y-15456810D01*
X5051905Y-15323476D02*
X5070953Y-15323476D01*
X5070953Y-15323476D02*
X5090000Y-15333000D01*
X5090000Y-15333000D02*
X5099524Y-15342524D01*
X5099524Y-15342524D02*
X5109048Y-15361571D01*
X5109048Y-15361571D02*
X5118572Y-15399667D01*
X5118572Y-15399667D02*
X5118572Y-15447286D01*
X5118572Y-15447286D02*
X5109048Y-15485381D01*
X5109048Y-15485381D02*
X5099524Y-15504429D01*
X5099524Y-15504429D02*
X5090000Y-15513952D01*
X5090000Y-15513952D02*
X5070953Y-15523476D01*
X5070953Y-15523476D02*
X5051905Y-15523476D01*
X5051905Y-15523476D02*
X5032857Y-15513952D01*
X5032857Y-15513952D02*
X5023333Y-15504429D01*
X5023333Y-15504429D02*
X5013810Y-15485381D01*
X5013810Y-15485381D02*
X5004286Y-15447286D01*
X5004286Y-15447286D02*
X5004286Y-15399667D01*
X5004286Y-15399667D02*
X5013810Y-15361571D01*
X5013810Y-15361571D02*
X5023333Y-15342524D01*
X5023333Y-15342524D02*
X5032857Y-15333000D01*
X5032857Y-15333000D02*
X5051905Y-15323476D01*
X5242381Y-15323476D02*
X5261429Y-15323476D01*
X5261429Y-15323476D02*
X5280476Y-15333000D01*
X5280476Y-15333000D02*
X5290000Y-15342524D01*
X5290000Y-15342524D02*
X5299524Y-15361571D01*
X5299524Y-15361571D02*
X5309048Y-15399667D01*
X5309048Y-15399667D02*
X5309048Y-15447286D01*
X5309048Y-15447286D02*
X5299524Y-15485381D01*
X5299524Y-15485381D02*
X5290000Y-15504429D01*
X5290000Y-15504429D02*
X5280476Y-15513952D01*
X5280476Y-15513952D02*
X5261429Y-15523476D01*
X5261429Y-15523476D02*
X5242381Y-15523476D01*
X5242381Y-15523476D02*
X5223333Y-15513952D01*
X5223333Y-15513952D02*
X5213810Y-15504429D01*
X5213810Y-15504429D02*
X5204286Y-15485381D01*
X5204286Y-15485381D02*
X5194762Y-15447286D01*
X5194762Y-15447286D02*
X5194762Y-15399667D01*
X5194762Y-15399667D02*
X5204286Y-15361571D01*
X5204286Y-15361571D02*
X5213810Y-15342524D01*
X5213810Y-15342524D02*
X5223333Y-15333000D01*
X5223333Y-15333000D02*
X5242381Y-15323476D01*
X5394762Y-15523476D02*
X5394762Y-15390143D01*
X5394762Y-15409190D02*
X5404286Y-15399667D01*
X5404286Y-15399667D02*
X5423333Y-15390143D01*
X5423333Y-15390143D02*
X5451905Y-15390143D01*
X5451905Y-15390143D02*
X5470953Y-15399667D01*
X5470953Y-15399667D02*
X5480476Y-15418714D01*
X5480476Y-15418714D02*
X5480476Y-15523476D01*
X5480476Y-15418714D02*
X5490000Y-15399667D01*
X5490000Y-15399667D02*
X5509048Y-15390143D01*
X5509048Y-15390143D02*
X5537619Y-15390143D01*
X5537619Y-15390143D02*
X5556667Y-15399667D01*
X5556667Y-15399667D02*
X5566191Y-15418714D01*
X5566191Y-15418714D02*
X5566191Y-15523476D01*
X5661429Y-15523476D02*
X5661429Y-15390143D01*
X5661429Y-15409190D02*
X5670952Y-15399667D01*
X5670952Y-15399667D02*
X5690000Y-15390143D01*
X5690000Y-15390143D02*
X5718572Y-15390143D01*
X5718572Y-15390143D02*
X5737619Y-15399667D01*
X5737619Y-15399667D02*
X5747143Y-15418714D01*
X5747143Y-15418714D02*
X5747143Y-15523476D01*
X5747143Y-15418714D02*
X5756667Y-15399667D01*
X5756667Y-15399667D02*
X5775714Y-15390143D01*
X5775714Y-15390143D02*
X5804286Y-15390143D01*
X5804286Y-15390143D02*
X5823333Y-15399667D01*
X5823333Y-15399667D02*
X5832857Y-15418714D01*
X5832857Y-15418714D02*
X5832857Y-15523476D01*
X6190952Y-15313952D02*
X6019524Y-15571095D01*
X6415714Y-15323476D02*
X6434762Y-15323476D01*
X6434762Y-15323476D02*
X6453810Y-15333000D01*
X6453810Y-15333000D02*
X6463333Y-15342524D01*
X6463333Y-15342524D02*
X6472857Y-15361571D01*
X6472857Y-15361571D02*
X6482381Y-15399667D01*
X6482381Y-15399667D02*
X6482381Y-15447286D01*
X6482381Y-15447286D02*
X6472857Y-15485381D01*
X6472857Y-15485381D02*
X6463333Y-15504429D01*
X6463333Y-15504429D02*
X6453810Y-15513952D01*
X6453810Y-15513952D02*
X6434762Y-15523476D01*
X6434762Y-15523476D02*
X6415714Y-15523476D01*
X6415714Y-15523476D02*
X6396667Y-15513952D01*
X6396667Y-15513952D02*
X6387143Y-15504429D01*
X6387143Y-15504429D02*
X6377619Y-15485381D01*
X6377619Y-15485381D02*
X6368095Y-15447286D01*
X6368095Y-15447286D02*
X6368095Y-15399667D01*
X6368095Y-15399667D02*
X6377619Y-15361571D01*
X6377619Y-15361571D02*
X6387143Y-15342524D01*
X6387143Y-15342524D02*
X6396667Y-15333000D01*
X6396667Y-15333000D02*
X6415714Y-15323476D01*
X6568095Y-15504429D02*
X6577619Y-15513952D01*
X6577619Y-15513952D02*
X6568095Y-15523476D01*
X6568095Y-15523476D02*
X6558572Y-15513952D01*
X6558572Y-15513952D02*
X6568095Y-15504429D01*
X6568095Y-15504429D02*
X6568095Y-15523476D01*
X6701429Y-15323476D02*
X6720476Y-15323476D01*
X6720476Y-15323476D02*
X6739524Y-15333000D01*
X6739524Y-15333000D02*
X6749048Y-15342524D01*
X6749048Y-15342524D02*
X6758572Y-15361571D01*
X6758572Y-15361571D02*
X6768095Y-15399667D01*
X6768095Y-15399667D02*
X6768095Y-15447286D01*
X6768095Y-15447286D02*
X6758572Y-15485381D01*
X6758572Y-15485381D02*
X6749048Y-15504429D01*
X6749048Y-15504429D02*
X6739524Y-15513952D01*
X6739524Y-15513952D02*
X6720476Y-15523476D01*
X6720476Y-15523476D02*
X6701429Y-15523476D01*
X6701429Y-15523476D02*
X6682381Y-15513952D01*
X6682381Y-15513952D02*
X6672857Y-15504429D01*
X6672857Y-15504429D02*
X6663333Y-15485381D01*
X6663333Y-15485381D02*
X6653810Y-15447286D01*
X6653810Y-15447286D02*
X6653810Y-15399667D01*
X6653810Y-15399667D02*
X6663333Y-15361571D01*
X6663333Y-15361571D02*
X6672857Y-15342524D01*
X6672857Y-15342524D02*
X6682381Y-15333000D01*
X6682381Y-15333000D02*
X6701429Y-15323476D01*
X6958572Y-15523476D02*
X6844286Y-15523476D01*
X6901429Y-15523476D02*
X6901429Y-15323476D01*
X6901429Y-15323476D02*
X6882381Y-15352048D01*
X6882381Y-15352048D02*
X6863333Y-15371095D01*
X6863333Y-15371095D02*
X6844286Y-15380619D01*
X7139524Y-15323476D02*
X7044286Y-15323476D01*
X7044286Y-15323476D02*
X7034762Y-15418714D01*
X7034762Y-15418714D02*
X7044286Y-15409190D01*
X7044286Y-15409190D02*
X7063333Y-15399667D01*
X7063333Y-15399667D02*
X7110953Y-15399667D01*
X7110953Y-15399667D02*
X7130000Y-15409190D01*
X7130000Y-15409190D02*
X7139524Y-15418714D01*
X7139524Y-15418714D02*
X7149048Y-15437762D01*
X7149048Y-15437762D02*
X7149048Y-15485381D01*
X7149048Y-15485381D02*
X7139524Y-15504429D01*
X7139524Y-15504429D02*
X7130000Y-15513952D01*
X7130000Y-15513952D02*
X7110953Y-15523476D01*
X7110953Y-15523476D02*
X7063333Y-15523476D01*
X7063333Y-15523476D02*
X7044286Y-15513952D01*
X7044286Y-15513952D02*
X7034762Y-15504429D01*
X7215714Y-15323476D02*
X7349048Y-15323476D01*
X7349048Y-15323476D02*
X7263333Y-15523476D01*
X7415714Y-15323476D02*
X7415714Y-15361571D01*
X7491905Y-15323476D02*
X7491905Y-15361571D01*
X7754762Y-15599667D02*
X7745238Y-15590143D01*
X7745238Y-15590143D02*
X7726191Y-15561571D01*
X7726191Y-15561571D02*
X7716667Y-15542524D01*
X7716667Y-15542524D02*
X7707143Y-15513952D01*
X7707143Y-15513952D02*
X7697619Y-15466333D01*
X7697619Y-15466333D02*
X7697619Y-15428238D01*
X7697619Y-15428238D02*
X7707143Y-15380619D01*
X7707143Y-15380619D02*
X7716667Y-15352048D01*
X7716667Y-15352048D02*
X7726191Y-15333000D01*
X7726191Y-15333000D02*
X7745238Y-15304429D01*
X7745238Y-15304429D02*
X7754762Y-15294905D01*
X7859524Y-15409190D02*
X7840476Y-15399667D01*
X7840476Y-15399667D02*
X7830953Y-15390143D01*
X7830953Y-15390143D02*
X7821429Y-15371095D01*
X7821429Y-15371095D02*
X7821429Y-15361571D01*
X7821429Y-15361571D02*
X7830953Y-15342524D01*
X7830953Y-15342524D02*
X7840476Y-15333000D01*
X7840476Y-15333000D02*
X7859524Y-15323476D01*
X7859524Y-15323476D02*
X7897619Y-15323476D01*
X7897619Y-15323476D02*
X7916667Y-15333000D01*
X7916667Y-15333000D02*
X7926191Y-15342524D01*
X7926191Y-15342524D02*
X7935714Y-15361571D01*
X7935714Y-15361571D02*
X7935714Y-15371095D01*
X7935714Y-15371095D02*
X7926191Y-15390143D01*
X7926191Y-15390143D02*
X7916667Y-15399667D01*
X7916667Y-15399667D02*
X7897619Y-15409190D01*
X7897619Y-15409190D02*
X7859524Y-15409190D01*
X7859524Y-15409190D02*
X7840476Y-15418714D01*
X7840476Y-15418714D02*
X7830953Y-15428238D01*
X7830953Y-15428238D02*
X7821429Y-15447286D01*
X7821429Y-15447286D02*
X7821429Y-15485381D01*
X7821429Y-15485381D02*
X7830953Y-15504429D01*
X7830953Y-15504429D02*
X7840476Y-15513952D01*
X7840476Y-15513952D02*
X7859524Y-15523476D01*
X7859524Y-15523476D02*
X7897619Y-15523476D01*
X7897619Y-15523476D02*
X7916667Y-15513952D01*
X7916667Y-15513952D02*
X7926191Y-15504429D01*
X7926191Y-15504429D02*
X7935714Y-15485381D01*
X7935714Y-15485381D02*
X7935714Y-15447286D01*
X7935714Y-15447286D02*
X7926191Y-15428238D01*
X7926191Y-15428238D02*
X7916667Y-15418714D01*
X7916667Y-15418714D02*
X7897619Y-15409190D01*
X8030953Y-15523476D02*
X8069048Y-15523476D01*
X8069048Y-15523476D02*
X8088095Y-15513952D01*
X8088095Y-15513952D02*
X8097619Y-15504429D01*
X8097619Y-15504429D02*
X8116667Y-15475857D01*
X8116667Y-15475857D02*
X8126191Y-15437762D01*
X8126191Y-15437762D02*
X8126191Y-15361571D01*
X8126191Y-15361571D02*
X8116667Y-15342524D01*
X8116667Y-15342524D02*
X8107143Y-15333000D01*
X8107143Y-15333000D02*
X8088095Y-15323476D01*
X8088095Y-15323476D02*
X8050000Y-15323476D01*
X8050000Y-15323476D02*
X8030953Y-15333000D01*
X8030953Y-15333000D02*
X8021429Y-15342524D01*
X8021429Y-15342524D02*
X8011905Y-15361571D01*
X8011905Y-15361571D02*
X8011905Y-15409190D01*
X8011905Y-15409190D02*
X8021429Y-15428238D01*
X8021429Y-15428238D02*
X8030953Y-15437762D01*
X8030953Y-15437762D02*
X8050000Y-15447286D01*
X8050000Y-15447286D02*
X8088095Y-15447286D01*
X8088095Y-15447286D02*
X8107143Y-15437762D01*
X8107143Y-15437762D02*
X8116667Y-15428238D01*
X8116667Y-15428238D02*
X8126191Y-15409190D01*
X8331905Y-15523476D02*
X8331905Y-15323476D01*
X8417619Y-15523476D02*
X8417619Y-15418714D01*
X8417619Y-15418714D02*
X8408096Y-15399667D01*
X8408096Y-15399667D02*
X8389048Y-15390143D01*
X8389048Y-15390143D02*
X8360476Y-15390143D01*
X8360476Y-15390143D02*
X8341429Y-15399667D01*
X8341429Y-15399667D02*
X8331905Y-15409190D01*
X8541429Y-15523476D02*
X8522381Y-15513952D01*
X8522381Y-15513952D02*
X8512857Y-15504429D01*
X8512857Y-15504429D02*
X8503334Y-15485381D01*
X8503334Y-15485381D02*
X8503334Y-15428238D01*
X8503334Y-15428238D02*
X8512857Y-15409190D01*
X8512857Y-15409190D02*
X8522381Y-15399667D01*
X8522381Y-15399667D02*
X8541429Y-15390143D01*
X8541429Y-15390143D02*
X8570000Y-15390143D01*
X8570000Y-15390143D02*
X8589048Y-15399667D01*
X8589048Y-15399667D02*
X8598572Y-15409190D01*
X8598572Y-15409190D02*
X8608096Y-15428238D01*
X8608096Y-15428238D02*
X8608096Y-15485381D01*
X8608096Y-15485381D02*
X8598572Y-15504429D01*
X8598572Y-15504429D02*
X8589048Y-15513952D01*
X8589048Y-15513952D02*
X8570000Y-15523476D01*
X8570000Y-15523476D02*
X8541429Y-15523476D01*
X8722381Y-15523476D02*
X8703334Y-15513952D01*
X8703334Y-15513952D02*
X8693810Y-15494905D01*
X8693810Y-15494905D02*
X8693810Y-15323476D01*
X8874762Y-15513952D02*
X8855715Y-15523476D01*
X8855715Y-15523476D02*
X8817619Y-15523476D01*
X8817619Y-15523476D02*
X8798572Y-15513952D01*
X8798572Y-15513952D02*
X8789048Y-15494905D01*
X8789048Y-15494905D02*
X8789048Y-15418714D01*
X8789048Y-15418714D02*
X8798572Y-15399667D01*
X8798572Y-15399667D02*
X8817619Y-15390143D01*
X8817619Y-15390143D02*
X8855715Y-15390143D01*
X8855715Y-15390143D02*
X8874762Y-15399667D01*
X8874762Y-15399667D02*
X8884286Y-15418714D01*
X8884286Y-15418714D02*
X8884286Y-15437762D01*
X8884286Y-15437762D02*
X8789048Y-15456810D01*
X8960477Y-15513952D02*
X8979524Y-15523476D01*
X8979524Y-15523476D02*
X9017619Y-15523476D01*
X9017619Y-15523476D02*
X9036667Y-15513952D01*
X9036667Y-15513952D02*
X9046191Y-15494905D01*
X9046191Y-15494905D02*
X9046191Y-15485381D01*
X9046191Y-15485381D02*
X9036667Y-15466333D01*
X9036667Y-15466333D02*
X9017619Y-15456810D01*
X9017619Y-15456810D02*
X8989048Y-15456810D01*
X8989048Y-15456810D02*
X8970000Y-15447286D01*
X8970000Y-15447286D02*
X8960477Y-15428238D01*
X8960477Y-15428238D02*
X8960477Y-15418714D01*
X8960477Y-15418714D02*
X8970000Y-15399667D01*
X8970000Y-15399667D02*
X8989048Y-15390143D01*
X8989048Y-15390143D02*
X9017619Y-15390143D01*
X9017619Y-15390143D02*
X9036667Y-15399667D01*
X9112858Y-15599667D02*
X9122381Y-15590143D01*
X9122381Y-15590143D02*
X9141429Y-15561571D01*
X9141429Y-15561571D02*
X9150953Y-15542524D01*
X9150953Y-15542524D02*
X9160477Y-15513952D01*
X9160477Y-15513952D02*
X9170000Y-15466333D01*
X9170000Y-15466333D02*
X9170000Y-15428238D01*
X9170000Y-15428238D02*
X9160477Y-15380619D01*
X9160477Y-15380619D02*
X9150953Y-15352048D01*
X9150953Y-15352048D02*
X9141429Y-15333000D01*
X9141429Y-15333000D02*
X9122381Y-15304429D01*
X9122381Y-15304429D02*
X9112858Y-15294905D01*
D12*
X4290000Y-15714000D02*
G75*
G03*
X4290000Y-15714000I-50000J0D01*
G01*
D10*
X4642381Y-15787476D02*
X4528095Y-15787476D01*
X4585238Y-15787476D02*
X4585238Y-15587476D01*
X4585238Y-15587476D02*
X4566191Y-15616048D01*
X4566191Y-15616048D02*
X4547143Y-15635095D01*
X4547143Y-15635095D02*
X4528095Y-15644619D01*
X4728095Y-15768429D02*
X4737619Y-15777952D01*
X4737619Y-15777952D02*
X4728095Y-15787476D01*
X4728095Y-15787476D02*
X4718572Y-15777952D01*
X4718572Y-15777952D02*
X4728095Y-15768429D01*
X4728095Y-15768429D02*
X4728095Y-15787476D01*
X4861429Y-15587476D02*
X4880476Y-15587476D01*
X4880476Y-15587476D02*
X4899524Y-15597000D01*
X4899524Y-15597000D02*
X4909048Y-15606524D01*
X4909048Y-15606524D02*
X4918572Y-15625571D01*
X4918572Y-15625571D02*
X4928095Y-15663667D01*
X4928095Y-15663667D02*
X4928095Y-15711286D01*
X4928095Y-15711286D02*
X4918572Y-15749381D01*
X4918572Y-15749381D02*
X4909048Y-15768429D01*
X4909048Y-15768429D02*
X4899524Y-15777952D01*
X4899524Y-15777952D02*
X4880476Y-15787476D01*
X4880476Y-15787476D02*
X4861429Y-15787476D01*
X4861429Y-15787476D02*
X4842381Y-15777952D01*
X4842381Y-15777952D02*
X4832857Y-15768429D01*
X4832857Y-15768429D02*
X4823333Y-15749381D01*
X4823333Y-15749381D02*
X4813810Y-15711286D01*
X4813810Y-15711286D02*
X4813810Y-15663667D01*
X4813810Y-15663667D02*
X4823333Y-15625571D01*
X4823333Y-15625571D02*
X4832857Y-15606524D01*
X4832857Y-15606524D02*
X4842381Y-15597000D01*
X4842381Y-15597000D02*
X4861429Y-15587476D01*
X5051905Y-15587476D02*
X5070953Y-15587476D01*
X5070953Y-15587476D02*
X5090000Y-15597000D01*
X5090000Y-15597000D02*
X5099524Y-15606524D01*
X5099524Y-15606524D02*
X5109048Y-15625571D01*
X5109048Y-15625571D02*
X5118572Y-15663667D01*
X5118572Y-15663667D02*
X5118572Y-15711286D01*
X5118572Y-15711286D02*
X5109048Y-15749381D01*
X5109048Y-15749381D02*
X5099524Y-15768429D01*
X5099524Y-15768429D02*
X5090000Y-15777952D01*
X5090000Y-15777952D02*
X5070953Y-15787476D01*
X5070953Y-15787476D02*
X5051905Y-15787476D01*
X5051905Y-15787476D02*
X5032857Y-15777952D01*
X5032857Y-15777952D02*
X5023333Y-15768429D01*
X5023333Y-15768429D02*
X5013810Y-15749381D01*
X5013810Y-15749381D02*
X5004286Y-15711286D01*
X5004286Y-15711286D02*
X5004286Y-15663667D01*
X5004286Y-15663667D02*
X5013810Y-15625571D01*
X5013810Y-15625571D02*
X5023333Y-15606524D01*
X5023333Y-15606524D02*
X5032857Y-15597000D01*
X5032857Y-15597000D02*
X5051905Y-15587476D01*
X5242381Y-15587476D02*
X5261429Y-15587476D01*
X5261429Y-15587476D02*
X5280476Y-15597000D01*
X5280476Y-15597000D02*
X5290000Y-15606524D01*
X5290000Y-15606524D02*
X5299524Y-15625571D01*
X5299524Y-15625571D02*
X5309048Y-15663667D01*
X5309048Y-15663667D02*
X5309048Y-15711286D01*
X5309048Y-15711286D02*
X5299524Y-15749381D01*
X5299524Y-15749381D02*
X5290000Y-15768429D01*
X5290000Y-15768429D02*
X5280476Y-15777952D01*
X5280476Y-15777952D02*
X5261429Y-15787476D01*
X5261429Y-15787476D02*
X5242381Y-15787476D01*
X5242381Y-15787476D02*
X5223333Y-15777952D01*
X5223333Y-15777952D02*
X5213810Y-15768429D01*
X5213810Y-15768429D02*
X5204286Y-15749381D01*
X5204286Y-15749381D02*
X5194762Y-15711286D01*
X5194762Y-15711286D02*
X5194762Y-15663667D01*
X5194762Y-15663667D02*
X5204286Y-15625571D01*
X5204286Y-15625571D02*
X5213810Y-15606524D01*
X5213810Y-15606524D02*
X5223333Y-15597000D01*
X5223333Y-15597000D02*
X5242381Y-15587476D01*
X5394762Y-15787476D02*
X5394762Y-15654143D01*
X5394762Y-15673190D02*
X5404286Y-15663667D01*
X5404286Y-15663667D02*
X5423333Y-15654143D01*
X5423333Y-15654143D02*
X5451905Y-15654143D01*
X5451905Y-15654143D02*
X5470953Y-15663667D01*
X5470953Y-15663667D02*
X5480476Y-15682714D01*
X5480476Y-15682714D02*
X5480476Y-15787476D01*
X5480476Y-15682714D02*
X5490000Y-15663667D01*
X5490000Y-15663667D02*
X5509048Y-15654143D01*
X5509048Y-15654143D02*
X5537619Y-15654143D01*
X5537619Y-15654143D02*
X5556667Y-15663667D01*
X5556667Y-15663667D02*
X5566191Y-15682714D01*
X5566191Y-15682714D02*
X5566191Y-15787476D01*
X5661429Y-15787476D02*
X5661429Y-15654143D01*
X5661429Y-15673190D02*
X5670952Y-15663667D01*
X5670952Y-15663667D02*
X5690000Y-15654143D01*
X5690000Y-15654143D02*
X5718572Y-15654143D01*
X5718572Y-15654143D02*
X5737619Y-15663667D01*
X5737619Y-15663667D02*
X5747143Y-15682714D01*
X5747143Y-15682714D02*
X5747143Y-15787476D01*
X5747143Y-15682714D02*
X5756667Y-15663667D01*
X5756667Y-15663667D02*
X5775714Y-15654143D01*
X5775714Y-15654143D02*
X5804286Y-15654143D01*
X5804286Y-15654143D02*
X5823333Y-15663667D01*
X5823333Y-15663667D02*
X5832857Y-15682714D01*
X5832857Y-15682714D02*
X5832857Y-15787476D01*
X6190952Y-15577952D02*
X6019524Y-15835095D01*
X6415714Y-15587476D02*
X6434762Y-15587476D01*
X6434762Y-15587476D02*
X6453810Y-15597000D01*
X6453810Y-15597000D02*
X6463333Y-15606524D01*
X6463333Y-15606524D02*
X6472857Y-15625571D01*
X6472857Y-15625571D02*
X6482381Y-15663667D01*
X6482381Y-15663667D02*
X6482381Y-15711286D01*
X6482381Y-15711286D02*
X6472857Y-15749381D01*
X6472857Y-15749381D02*
X6463333Y-15768429D01*
X6463333Y-15768429D02*
X6453810Y-15777952D01*
X6453810Y-15777952D02*
X6434762Y-15787476D01*
X6434762Y-15787476D02*
X6415714Y-15787476D01*
X6415714Y-15787476D02*
X6396667Y-15777952D01*
X6396667Y-15777952D02*
X6387143Y-15768429D01*
X6387143Y-15768429D02*
X6377619Y-15749381D01*
X6377619Y-15749381D02*
X6368095Y-15711286D01*
X6368095Y-15711286D02*
X6368095Y-15663667D01*
X6368095Y-15663667D02*
X6377619Y-15625571D01*
X6377619Y-15625571D02*
X6387143Y-15606524D01*
X6387143Y-15606524D02*
X6396667Y-15597000D01*
X6396667Y-15597000D02*
X6415714Y-15587476D01*
X6568095Y-15768429D02*
X6577619Y-15777952D01*
X6577619Y-15777952D02*
X6568095Y-15787476D01*
X6568095Y-15787476D02*
X6558572Y-15777952D01*
X6558572Y-15777952D02*
X6568095Y-15768429D01*
X6568095Y-15768429D02*
X6568095Y-15787476D01*
X6701429Y-15587476D02*
X6720476Y-15587476D01*
X6720476Y-15587476D02*
X6739524Y-15597000D01*
X6739524Y-15597000D02*
X6749048Y-15606524D01*
X6749048Y-15606524D02*
X6758572Y-15625571D01*
X6758572Y-15625571D02*
X6768095Y-15663667D01*
X6768095Y-15663667D02*
X6768095Y-15711286D01*
X6768095Y-15711286D02*
X6758572Y-15749381D01*
X6758572Y-15749381D02*
X6749048Y-15768429D01*
X6749048Y-15768429D02*
X6739524Y-15777952D01*
X6739524Y-15777952D02*
X6720476Y-15787476D01*
X6720476Y-15787476D02*
X6701429Y-15787476D01*
X6701429Y-15787476D02*
X6682381Y-15777952D01*
X6682381Y-15777952D02*
X6672857Y-15768429D01*
X6672857Y-15768429D02*
X6663333Y-15749381D01*
X6663333Y-15749381D02*
X6653810Y-15711286D01*
X6653810Y-15711286D02*
X6653810Y-15663667D01*
X6653810Y-15663667D02*
X6663333Y-15625571D01*
X6663333Y-15625571D02*
X6672857Y-15606524D01*
X6672857Y-15606524D02*
X6682381Y-15597000D01*
X6682381Y-15597000D02*
X6701429Y-15587476D01*
X6834762Y-15587476D02*
X6958572Y-15587476D01*
X6958572Y-15587476D02*
X6891905Y-15663667D01*
X6891905Y-15663667D02*
X6920476Y-15663667D01*
X6920476Y-15663667D02*
X6939524Y-15673190D01*
X6939524Y-15673190D02*
X6949048Y-15682714D01*
X6949048Y-15682714D02*
X6958572Y-15701762D01*
X6958572Y-15701762D02*
X6958572Y-15749381D01*
X6958572Y-15749381D02*
X6949048Y-15768429D01*
X6949048Y-15768429D02*
X6939524Y-15777952D01*
X6939524Y-15777952D02*
X6920476Y-15787476D01*
X6920476Y-15787476D02*
X6863333Y-15787476D01*
X6863333Y-15787476D02*
X6844286Y-15777952D01*
X6844286Y-15777952D02*
X6834762Y-15768429D01*
X7053810Y-15787476D02*
X7091905Y-15787476D01*
X7091905Y-15787476D02*
X7110953Y-15777952D01*
X7110953Y-15777952D02*
X7120476Y-15768429D01*
X7120476Y-15768429D02*
X7139524Y-15739857D01*
X7139524Y-15739857D02*
X7149048Y-15701762D01*
X7149048Y-15701762D02*
X7149048Y-15625571D01*
X7149048Y-15625571D02*
X7139524Y-15606524D01*
X7139524Y-15606524D02*
X7130000Y-15597000D01*
X7130000Y-15597000D02*
X7110953Y-15587476D01*
X7110953Y-15587476D02*
X7072857Y-15587476D01*
X7072857Y-15587476D02*
X7053810Y-15597000D01*
X7053810Y-15597000D02*
X7044286Y-15606524D01*
X7044286Y-15606524D02*
X7034762Y-15625571D01*
X7034762Y-15625571D02*
X7034762Y-15673190D01*
X7034762Y-15673190D02*
X7044286Y-15692238D01*
X7044286Y-15692238D02*
X7053810Y-15701762D01*
X7053810Y-15701762D02*
X7072857Y-15711286D01*
X7072857Y-15711286D02*
X7110953Y-15711286D01*
X7110953Y-15711286D02*
X7130000Y-15701762D01*
X7130000Y-15701762D02*
X7139524Y-15692238D01*
X7139524Y-15692238D02*
X7149048Y-15673190D01*
X7320476Y-15654143D02*
X7320476Y-15787476D01*
X7272857Y-15577952D02*
X7225238Y-15720810D01*
X7225238Y-15720810D02*
X7349048Y-15720810D01*
X7415714Y-15587476D02*
X7415714Y-15625571D01*
X7491905Y-15587476D02*
X7491905Y-15625571D01*
X7754762Y-15863667D02*
X7745238Y-15854143D01*
X7745238Y-15854143D02*
X7726191Y-15825571D01*
X7726191Y-15825571D02*
X7716667Y-15806524D01*
X7716667Y-15806524D02*
X7707143Y-15777952D01*
X7707143Y-15777952D02*
X7697619Y-15730333D01*
X7697619Y-15730333D02*
X7697619Y-15692238D01*
X7697619Y-15692238D02*
X7707143Y-15644619D01*
X7707143Y-15644619D02*
X7716667Y-15616048D01*
X7716667Y-15616048D02*
X7726191Y-15597000D01*
X7726191Y-15597000D02*
X7745238Y-15568429D01*
X7745238Y-15568429D02*
X7754762Y-15558905D01*
X7926191Y-15587476D02*
X7830953Y-15587476D01*
X7830953Y-15587476D02*
X7821429Y-15682714D01*
X7821429Y-15682714D02*
X7830953Y-15673190D01*
X7830953Y-15673190D02*
X7850000Y-15663667D01*
X7850000Y-15663667D02*
X7897619Y-15663667D01*
X7897619Y-15663667D02*
X7916667Y-15673190D01*
X7916667Y-15673190D02*
X7926191Y-15682714D01*
X7926191Y-15682714D02*
X7935714Y-15701762D01*
X7935714Y-15701762D02*
X7935714Y-15749381D01*
X7935714Y-15749381D02*
X7926191Y-15768429D01*
X7926191Y-15768429D02*
X7916667Y-15777952D01*
X7916667Y-15777952D02*
X7897619Y-15787476D01*
X7897619Y-15787476D02*
X7850000Y-15787476D01*
X7850000Y-15787476D02*
X7830953Y-15777952D01*
X7830953Y-15777952D02*
X7821429Y-15768429D01*
X8011905Y-15606524D02*
X8021429Y-15597000D01*
X8021429Y-15597000D02*
X8040476Y-15587476D01*
X8040476Y-15587476D02*
X8088095Y-15587476D01*
X8088095Y-15587476D02*
X8107143Y-15597000D01*
X8107143Y-15597000D02*
X8116667Y-15606524D01*
X8116667Y-15606524D02*
X8126191Y-15625571D01*
X8126191Y-15625571D02*
X8126191Y-15644619D01*
X8126191Y-15644619D02*
X8116667Y-15673190D01*
X8116667Y-15673190D02*
X8002381Y-15787476D01*
X8002381Y-15787476D02*
X8126191Y-15787476D01*
X8331905Y-15787476D02*
X8331905Y-15587476D01*
X8417619Y-15787476D02*
X8417619Y-15682714D01*
X8417619Y-15682714D02*
X8408096Y-15663667D01*
X8408096Y-15663667D02*
X8389048Y-15654143D01*
X8389048Y-15654143D02*
X8360476Y-15654143D01*
X8360476Y-15654143D02*
X8341429Y-15663667D01*
X8341429Y-15663667D02*
X8331905Y-15673190D01*
X8541429Y-15787476D02*
X8522381Y-15777952D01*
X8522381Y-15777952D02*
X8512857Y-15768429D01*
X8512857Y-15768429D02*
X8503334Y-15749381D01*
X8503334Y-15749381D02*
X8503334Y-15692238D01*
X8503334Y-15692238D02*
X8512857Y-15673190D01*
X8512857Y-15673190D02*
X8522381Y-15663667D01*
X8522381Y-15663667D02*
X8541429Y-15654143D01*
X8541429Y-15654143D02*
X8570000Y-15654143D01*
X8570000Y-15654143D02*
X8589048Y-15663667D01*
X8589048Y-15663667D02*
X8598572Y-15673190D01*
X8598572Y-15673190D02*
X8608096Y-15692238D01*
X8608096Y-15692238D02*
X8608096Y-15749381D01*
X8608096Y-15749381D02*
X8598572Y-15768429D01*
X8598572Y-15768429D02*
X8589048Y-15777952D01*
X8589048Y-15777952D02*
X8570000Y-15787476D01*
X8570000Y-15787476D02*
X8541429Y-15787476D01*
X8722381Y-15787476D02*
X8703334Y-15777952D01*
X8703334Y-15777952D02*
X8693810Y-15758905D01*
X8693810Y-15758905D02*
X8693810Y-15587476D01*
X8874762Y-15777952D02*
X8855715Y-15787476D01*
X8855715Y-15787476D02*
X8817619Y-15787476D01*
X8817619Y-15787476D02*
X8798572Y-15777952D01*
X8798572Y-15777952D02*
X8789048Y-15758905D01*
X8789048Y-15758905D02*
X8789048Y-15682714D01*
X8789048Y-15682714D02*
X8798572Y-15663667D01*
X8798572Y-15663667D02*
X8817619Y-15654143D01*
X8817619Y-15654143D02*
X8855715Y-15654143D01*
X8855715Y-15654143D02*
X8874762Y-15663667D01*
X8874762Y-15663667D02*
X8884286Y-15682714D01*
X8884286Y-15682714D02*
X8884286Y-15701762D01*
X8884286Y-15701762D02*
X8789048Y-15720810D01*
X8960477Y-15777952D02*
X8979524Y-15787476D01*
X8979524Y-15787476D02*
X9017619Y-15787476D01*
X9017619Y-15787476D02*
X9036667Y-15777952D01*
X9036667Y-15777952D02*
X9046191Y-15758905D01*
X9046191Y-15758905D02*
X9046191Y-15749381D01*
X9046191Y-15749381D02*
X9036667Y-15730333D01*
X9036667Y-15730333D02*
X9017619Y-15720810D01*
X9017619Y-15720810D02*
X8989048Y-15720810D01*
X8989048Y-15720810D02*
X8970000Y-15711286D01*
X8970000Y-15711286D02*
X8960477Y-15692238D01*
X8960477Y-15692238D02*
X8960477Y-15682714D01*
X8960477Y-15682714D02*
X8970000Y-15663667D01*
X8970000Y-15663667D02*
X8989048Y-15654143D01*
X8989048Y-15654143D02*
X9017619Y-15654143D01*
X9017619Y-15654143D02*
X9036667Y-15663667D01*
X9112858Y-15863667D02*
X9122381Y-15854143D01*
X9122381Y-15854143D02*
X9141429Y-15825571D01*
X9141429Y-15825571D02*
X9150953Y-15806524D01*
X9150953Y-15806524D02*
X9160477Y-15777952D01*
X9160477Y-15777952D02*
X9170000Y-15730333D01*
X9170000Y-15730333D02*
X9170000Y-15692238D01*
X9170000Y-15692238D02*
X9160477Y-15644619D01*
X9160477Y-15644619D02*
X9150953Y-15616048D01*
X9150953Y-15616048D02*
X9141429Y-15597000D01*
X9141429Y-15597000D02*
X9122381Y-15568429D01*
X9122381Y-15568429D02*
X9112858Y-15558905D01*
D13*
X4235000Y-15923000D02*
X4235000Y-16033000D01*
X4180000Y-15978000D02*
X4290000Y-15978000D01*
D10*
X4642381Y-16051476D02*
X4528095Y-16051476D01*
X4585238Y-16051476D02*
X4585238Y-15851476D01*
X4585238Y-15851476D02*
X4566191Y-15880048D01*
X4566191Y-15880048D02*
X4547143Y-15899095D01*
X4547143Y-15899095D02*
X4528095Y-15908619D01*
X4728095Y-16032429D02*
X4737619Y-16041952D01*
X4737619Y-16041952D02*
X4728095Y-16051476D01*
X4728095Y-16051476D02*
X4718572Y-16041952D01*
X4718572Y-16041952D02*
X4728095Y-16032429D01*
X4728095Y-16032429D02*
X4728095Y-16051476D01*
X4928095Y-16051476D02*
X4813810Y-16051476D01*
X4870952Y-16051476D02*
X4870952Y-15851476D01*
X4870952Y-15851476D02*
X4851905Y-15880048D01*
X4851905Y-15880048D02*
X4832857Y-15899095D01*
X4832857Y-15899095D02*
X4813810Y-15908619D01*
X5051905Y-15851476D02*
X5070953Y-15851476D01*
X5070953Y-15851476D02*
X5090000Y-15861000D01*
X5090000Y-15861000D02*
X5099524Y-15870524D01*
X5099524Y-15870524D02*
X5109048Y-15889571D01*
X5109048Y-15889571D02*
X5118572Y-15927667D01*
X5118572Y-15927667D02*
X5118572Y-15975286D01*
X5118572Y-15975286D02*
X5109048Y-16013381D01*
X5109048Y-16013381D02*
X5099524Y-16032429D01*
X5099524Y-16032429D02*
X5090000Y-16041952D01*
X5090000Y-16041952D02*
X5070953Y-16051476D01*
X5070953Y-16051476D02*
X5051905Y-16051476D01*
X5051905Y-16051476D02*
X5032857Y-16041952D01*
X5032857Y-16041952D02*
X5023333Y-16032429D01*
X5023333Y-16032429D02*
X5013810Y-16013381D01*
X5013810Y-16013381D02*
X5004286Y-15975286D01*
X5004286Y-15975286D02*
X5004286Y-15927667D01*
X5004286Y-15927667D02*
X5013810Y-15889571D01*
X5013810Y-15889571D02*
X5023333Y-15870524D01*
X5023333Y-15870524D02*
X5032857Y-15861000D01*
X5032857Y-15861000D02*
X5051905Y-15851476D01*
X5242381Y-15851476D02*
X5261429Y-15851476D01*
X5261429Y-15851476D02*
X5280476Y-15861000D01*
X5280476Y-15861000D02*
X5290000Y-15870524D01*
X5290000Y-15870524D02*
X5299524Y-15889571D01*
X5299524Y-15889571D02*
X5309048Y-15927667D01*
X5309048Y-15927667D02*
X5309048Y-15975286D01*
X5309048Y-15975286D02*
X5299524Y-16013381D01*
X5299524Y-16013381D02*
X5290000Y-16032429D01*
X5290000Y-16032429D02*
X5280476Y-16041952D01*
X5280476Y-16041952D02*
X5261429Y-16051476D01*
X5261429Y-16051476D02*
X5242381Y-16051476D01*
X5242381Y-16051476D02*
X5223333Y-16041952D01*
X5223333Y-16041952D02*
X5213810Y-16032429D01*
X5213810Y-16032429D02*
X5204286Y-16013381D01*
X5204286Y-16013381D02*
X5194762Y-15975286D01*
X5194762Y-15975286D02*
X5194762Y-15927667D01*
X5194762Y-15927667D02*
X5204286Y-15889571D01*
X5204286Y-15889571D02*
X5213810Y-15870524D01*
X5213810Y-15870524D02*
X5223333Y-15861000D01*
X5223333Y-15861000D02*
X5242381Y-15851476D01*
X5394762Y-16051476D02*
X5394762Y-15918143D01*
X5394762Y-15937190D02*
X5404286Y-15927667D01*
X5404286Y-15927667D02*
X5423333Y-15918143D01*
X5423333Y-15918143D02*
X5451905Y-15918143D01*
X5451905Y-15918143D02*
X5470953Y-15927667D01*
X5470953Y-15927667D02*
X5480476Y-15946714D01*
X5480476Y-15946714D02*
X5480476Y-16051476D01*
X5480476Y-15946714D02*
X5490000Y-15927667D01*
X5490000Y-15927667D02*
X5509048Y-15918143D01*
X5509048Y-15918143D02*
X5537619Y-15918143D01*
X5537619Y-15918143D02*
X5556667Y-15927667D01*
X5556667Y-15927667D02*
X5566191Y-15946714D01*
X5566191Y-15946714D02*
X5566191Y-16051476D01*
X5661429Y-16051476D02*
X5661429Y-15918143D01*
X5661429Y-15937190D02*
X5670952Y-15927667D01*
X5670952Y-15927667D02*
X5690000Y-15918143D01*
X5690000Y-15918143D02*
X5718572Y-15918143D01*
X5718572Y-15918143D02*
X5737619Y-15927667D01*
X5737619Y-15927667D02*
X5747143Y-15946714D01*
X5747143Y-15946714D02*
X5747143Y-16051476D01*
X5747143Y-15946714D02*
X5756667Y-15927667D01*
X5756667Y-15927667D02*
X5775714Y-15918143D01*
X5775714Y-15918143D02*
X5804286Y-15918143D01*
X5804286Y-15918143D02*
X5823333Y-15927667D01*
X5823333Y-15927667D02*
X5832857Y-15946714D01*
X5832857Y-15946714D02*
X5832857Y-16051476D01*
X6190952Y-15841952D02*
X6019524Y-16099095D01*
X6415714Y-15851476D02*
X6434762Y-15851476D01*
X6434762Y-15851476D02*
X6453810Y-15861000D01*
X6453810Y-15861000D02*
X6463333Y-15870524D01*
X6463333Y-15870524D02*
X6472857Y-15889571D01*
X6472857Y-15889571D02*
X6482381Y-15927667D01*
X6482381Y-15927667D02*
X6482381Y-15975286D01*
X6482381Y-15975286D02*
X6472857Y-16013381D01*
X6472857Y-16013381D02*
X6463333Y-16032429D01*
X6463333Y-16032429D02*
X6453810Y-16041952D01*
X6453810Y-16041952D02*
X6434762Y-16051476D01*
X6434762Y-16051476D02*
X6415714Y-16051476D01*
X6415714Y-16051476D02*
X6396667Y-16041952D01*
X6396667Y-16041952D02*
X6387143Y-16032429D01*
X6387143Y-16032429D02*
X6377619Y-16013381D01*
X6377619Y-16013381D02*
X6368095Y-15975286D01*
X6368095Y-15975286D02*
X6368095Y-15927667D01*
X6368095Y-15927667D02*
X6377619Y-15889571D01*
X6377619Y-15889571D02*
X6387143Y-15870524D01*
X6387143Y-15870524D02*
X6396667Y-15861000D01*
X6396667Y-15861000D02*
X6415714Y-15851476D01*
X6568095Y-16032429D02*
X6577619Y-16041952D01*
X6577619Y-16041952D02*
X6568095Y-16051476D01*
X6568095Y-16051476D02*
X6558572Y-16041952D01*
X6558572Y-16041952D02*
X6568095Y-16032429D01*
X6568095Y-16032429D02*
X6568095Y-16051476D01*
X6701429Y-15851476D02*
X6720476Y-15851476D01*
X6720476Y-15851476D02*
X6739524Y-15861000D01*
X6739524Y-15861000D02*
X6749048Y-15870524D01*
X6749048Y-15870524D02*
X6758572Y-15889571D01*
X6758572Y-15889571D02*
X6768095Y-15927667D01*
X6768095Y-15927667D02*
X6768095Y-15975286D01*
X6768095Y-15975286D02*
X6758572Y-16013381D01*
X6758572Y-16013381D02*
X6749048Y-16032429D01*
X6749048Y-16032429D02*
X6739524Y-16041952D01*
X6739524Y-16041952D02*
X6720476Y-16051476D01*
X6720476Y-16051476D02*
X6701429Y-16051476D01*
X6701429Y-16051476D02*
X6682381Y-16041952D01*
X6682381Y-16041952D02*
X6672857Y-16032429D01*
X6672857Y-16032429D02*
X6663333Y-16013381D01*
X6663333Y-16013381D02*
X6653810Y-15975286D01*
X6653810Y-15975286D02*
X6653810Y-15927667D01*
X6653810Y-15927667D02*
X6663333Y-15889571D01*
X6663333Y-15889571D02*
X6672857Y-15870524D01*
X6672857Y-15870524D02*
X6682381Y-15861000D01*
X6682381Y-15861000D02*
X6701429Y-15851476D01*
X6939524Y-15918143D02*
X6939524Y-16051476D01*
X6891905Y-15841952D02*
X6844286Y-15984810D01*
X6844286Y-15984810D02*
X6968095Y-15984810D01*
X7025238Y-15851476D02*
X7149048Y-15851476D01*
X7149048Y-15851476D02*
X7082381Y-15927667D01*
X7082381Y-15927667D02*
X7110953Y-15927667D01*
X7110953Y-15927667D02*
X7130000Y-15937190D01*
X7130000Y-15937190D02*
X7139524Y-15946714D01*
X7139524Y-15946714D02*
X7149048Y-15965762D01*
X7149048Y-15965762D02*
X7149048Y-16013381D01*
X7149048Y-16013381D02*
X7139524Y-16032429D01*
X7139524Y-16032429D02*
X7130000Y-16041952D01*
X7130000Y-16041952D02*
X7110953Y-16051476D01*
X7110953Y-16051476D02*
X7053810Y-16051476D01*
X7053810Y-16051476D02*
X7034762Y-16041952D01*
X7034762Y-16041952D02*
X7025238Y-16032429D01*
X7215714Y-15851476D02*
X7339524Y-15851476D01*
X7339524Y-15851476D02*
X7272857Y-15927667D01*
X7272857Y-15927667D02*
X7301429Y-15927667D01*
X7301429Y-15927667D02*
X7320476Y-15937190D01*
X7320476Y-15937190D02*
X7330000Y-15946714D01*
X7330000Y-15946714D02*
X7339524Y-15965762D01*
X7339524Y-15965762D02*
X7339524Y-16013381D01*
X7339524Y-16013381D02*
X7330000Y-16032429D01*
X7330000Y-16032429D02*
X7320476Y-16041952D01*
X7320476Y-16041952D02*
X7301429Y-16051476D01*
X7301429Y-16051476D02*
X7244286Y-16051476D01*
X7244286Y-16051476D02*
X7225238Y-16041952D01*
X7225238Y-16041952D02*
X7215714Y-16032429D01*
X7415714Y-15851476D02*
X7415714Y-15889571D01*
X7491905Y-15851476D02*
X7491905Y-15889571D01*
X7754762Y-16127667D02*
X7745238Y-16118143D01*
X7745238Y-16118143D02*
X7726191Y-16089571D01*
X7726191Y-16089571D02*
X7716667Y-16070524D01*
X7716667Y-16070524D02*
X7707143Y-16041952D01*
X7707143Y-16041952D02*
X7697619Y-15994333D01*
X7697619Y-15994333D02*
X7697619Y-15956238D01*
X7697619Y-15956238D02*
X7707143Y-15908619D01*
X7707143Y-15908619D02*
X7716667Y-15880048D01*
X7716667Y-15880048D02*
X7726191Y-15861000D01*
X7726191Y-15861000D02*
X7745238Y-15832429D01*
X7745238Y-15832429D02*
X7754762Y-15822905D01*
X7859524Y-15937190D02*
X7840476Y-15927667D01*
X7840476Y-15927667D02*
X7830953Y-15918143D01*
X7830953Y-15918143D02*
X7821429Y-15899095D01*
X7821429Y-15899095D02*
X7821429Y-15889571D01*
X7821429Y-15889571D02*
X7830953Y-15870524D01*
X7830953Y-15870524D02*
X7840476Y-15861000D01*
X7840476Y-15861000D02*
X7859524Y-15851476D01*
X7859524Y-15851476D02*
X7897619Y-15851476D01*
X7897619Y-15851476D02*
X7916667Y-15861000D01*
X7916667Y-15861000D02*
X7926191Y-15870524D01*
X7926191Y-15870524D02*
X7935714Y-15889571D01*
X7935714Y-15889571D02*
X7935714Y-15899095D01*
X7935714Y-15899095D02*
X7926191Y-15918143D01*
X7926191Y-15918143D02*
X7916667Y-15927667D01*
X7916667Y-15927667D02*
X7897619Y-15937190D01*
X7897619Y-15937190D02*
X7859524Y-15937190D01*
X7859524Y-15937190D02*
X7840476Y-15946714D01*
X7840476Y-15946714D02*
X7830953Y-15956238D01*
X7830953Y-15956238D02*
X7821429Y-15975286D01*
X7821429Y-15975286D02*
X7821429Y-16013381D01*
X7821429Y-16013381D02*
X7830953Y-16032429D01*
X7830953Y-16032429D02*
X7840476Y-16041952D01*
X7840476Y-16041952D02*
X7859524Y-16051476D01*
X7859524Y-16051476D02*
X7897619Y-16051476D01*
X7897619Y-16051476D02*
X7916667Y-16041952D01*
X7916667Y-16041952D02*
X7926191Y-16032429D01*
X7926191Y-16032429D02*
X7935714Y-16013381D01*
X7935714Y-16013381D02*
X7935714Y-15975286D01*
X7935714Y-15975286D02*
X7926191Y-15956238D01*
X7926191Y-15956238D02*
X7916667Y-15946714D01*
X7916667Y-15946714D02*
X7897619Y-15937190D01*
X8141429Y-16051476D02*
X8141429Y-15851476D01*
X8227143Y-16051476D02*
X8227143Y-15946714D01*
X8227143Y-15946714D02*
X8217619Y-15927667D01*
X8217619Y-15927667D02*
X8198572Y-15918143D01*
X8198572Y-15918143D02*
X8170000Y-15918143D01*
X8170000Y-15918143D02*
X8150953Y-15927667D01*
X8150953Y-15927667D02*
X8141429Y-15937190D01*
X8350953Y-16051476D02*
X8331905Y-16041952D01*
X8331905Y-16041952D02*
X8322381Y-16032429D01*
X8322381Y-16032429D02*
X8312857Y-16013381D01*
X8312857Y-16013381D02*
X8312857Y-15956238D01*
X8312857Y-15956238D02*
X8322381Y-15937190D01*
X8322381Y-15937190D02*
X8331905Y-15927667D01*
X8331905Y-15927667D02*
X8350953Y-15918143D01*
X8350953Y-15918143D02*
X8379524Y-15918143D01*
X8379524Y-15918143D02*
X8398572Y-15927667D01*
X8398572Y-15927667D02*
X8408096Y-15937190D01*
X8408096Y-15937190D02*
X8417619Y-15956238D01*
X8417619Y-15956238D02*
X8417619Y-16013381D01*
X8417619Y-16013381D02*
X8408096Y-16032429D01*
X8408096Y-16032429D02*
X8398572Y-16041952D01*
X8398572Y-16041952D02*
X8379524Y-16051476D01*
X8379524Y-16051476D02*
X8350953Y-16051476D01*
X8531905Y-16051476D02*
X8512857Y-16041952D01*
X8512857Y-16041952D02*
X8503334Y-16022905D01*
X8503334Y-16022905D02*
X8503334Y-15851476D01*
X8684286Y-16041952D02*
X8665238Y-16051476D01*
X8665238Y-16051476D02*
X8627143Y-16051476D01*
X8627143Y-16051476D02*
X8608096Y-16041952D01*
X8608096Y-16041952D02*
X8598572Y-16022905D01*
X8598572Y-16022905D02*
X8598572Y-15946714D01*
X8598572Y-15946714D02*
X8608096Y-15927667D01*
X8608096Y-15927667D02*
X8627143Y-15918143D01*
X8627143Y-15918143D02*
X8665238Y-15918143D01*
X8665238Y-15918143D02*
X8684286Y-15927667D01*
X8684286Y-15927667D02*
X8693810Y-15946714D01*
X8693810Y-15946714D02*
X8693810Y-15965762D01*
X8693810Y-15965762D02*
X8598572Y-15984810D01*
X8770000Y-16041952D02*
X8789048Y-16051476D01*
X8789048Y-16051476D02*
X8827143Y-16051476D01*
X8827143Y-16051476D02*
X8846191Y-16041952D01*
X8846191Y-16041952D02*
X8855715Y-16022905D01*
X8855715Y-16022905D02*
X8855715Y-16013381D01*
X8855715Y-16013381D02*
X8846191Y-15994333D01*
X8846191Y-15994333D02*
X8827143Y-15984810D01*
X8827143Y-15984810D02*
X8798572Y-15984810D01*
X8798572Y-15984810D02*
X8779524Y-15975286D01*
X8779524Y-15975286D02*
X8770000Y-15956238D01*
X8770000Y-15956238D02*
X8770000Y-15946714D01*
X8770000Y-15946714D02*
X8779524Y-15927667D01*
X8779524Y-15927667D02*
X8798572Y-15918143D01*
X8798572Y-15918143D02*
X8827143Y-15918143D01*
X8827143Y-15918143D02*
X8846191Y-15927667D01*
X8922381Y-16127667D02*
X8931905Y-16118143D01*
X8931905Y-16118143D02*
X8950953Y-16089571D01*
X8950953Y-16089571D02*
X8960477Y-16070524D01*
X8960477Y-16070524D02*
X8970000Y-16041952D01*
X8970000Y-16041952D02*
X8979524Y-15994333D01*
X8979524Y-15994333D02*
X8979524Y-15956238D01*
X8979524Y-15956238D02*
X8970000Y-15908619D01*
X8970000Y-15908619D02*
X8960477Y-15880048D01*
X8960477Y-15880048D02*
X8950953Y-15861000D01*
X8950953Y-15861000D02*
X8931905Y-15832429D01*
X8931905Y-15832429D02*
X8922381Y-15822905D01*
M02*
