M48
; DRILL file {KiCad (7.0.0)} date Mon Apr 17 09:53:24 2023
; FORMAT={-:-/ absolute / inch / decimal}
; #@! TF.CreationDate,2023-04-17T09:53:24+02:00
; #@! TF.GenerationSoftware,Kicad,Pcbnew,(7.0.0)
; #@! TF.FileFunction,Plated,1,2,PTH
FMAT,2
INCH
; #@! TA.AperFunction,Plated,PTH,ViaDrill
T1C0.0157
; #@! TA.AperFunction,Plated,PTH,ComponentDrill
T2C0.0394
; #@! TA.AperFunction,Plated,PTH,ComponentDrill
T3C0.0433
%
G90
G05
T1
X1.8429Y-4.1862
X1.8472Y-3.9606
X1.8472Y-4.3728
X1.8504Y-4.5114
X1.9441Y-4.5488
X1.9445Y-4.3457
X1.9453Y-3.9059
X1.9496Y-4.0713
X1.9539Y-4.8413
X1.9598Y-4.6618
X1.961Y-4.478
X2.1055Y-4.5969
X2.3219Y-4.0846
X2.3945Y-3.6323
X2.4016Y-4.1992
X2.4035Y-4.3474
X2.4071Y-4.4366
X2.5469Y-5.7657
X2.5811Y-5.1413
X2.5886Y-3.4161
X2.5917Y-2.8488
X2.6469Y-1.25
X2.7063Y-3.6441
X2.7488Y-3.0051
X2.7693Y-3.3634
X2.8161Y-4.2339
X2.8823Y-5.4138
X2.8898Y-5.0882
X2.9591Y-4.5965
X3.0315Y-4.248
X3.0642Y-5.572
X3.0748Y-4.4862
X3.1016Y-5.0209
X3.1197Y-4.815
X3.152Y-4.9524
X3.1736Y-2.5343
X3.1866Y-5.085
X3.1913Y-5.2917
X3.1996Y-4.8965
X3.2106Y-1.4094
X3.2732Y-5.7823
X3.2937Y-5.4835
X3.3297Y-4.4508
X3.3354Y-4.3362
X3.3665Y-2.7173
X3.3854Y-5.2969
X3.4791Y-4.1287
X3.4831Y-4.2965
X3.5878Y-1.4724
X3.6543Y-1.1807
X3.6591Y-5.5984
X3.6602Y-5.4366
X3.7205Y-1.3134
X3.8193Y-5.1244
X3.9894Y-1.5016
X3.9917Y-1.1689
X4.0457Y-5.45
X4.048Y-3.6323
X4.0492Y-4.1472
X4.0591Y-3.9146
X4.089Y-5.1339
X4.111Y-3.724
X4.1228Y-3.4429
X4.189Y-5.5827
X4.2126Y-3.8843
X4.2382Y-5.5837
X4.2453Y-4.148
X4.2657Y-1.5083
X4.2805Y-5.5846
X4.3016Y-5.1303
X4.3228Y-5.3213
X4.3299Y-3.3917
X4.3317Y-5.5856
X4.3327Y-3.6933
X4.3921Y-3.7929
X4.4098Y-5.7197
X4.4417Y-4.0669
X4.4528Y-3.5807
X4.4638Y-3.7713
X4.4661Y-4.5689
X4.4764Y-4.2417
X4.5157Y-1.4299
X4.5539Y-4.5618
X4.563Y-3.8516
X4.6224Y-4.5681
X4.6894Y-4.576
X4.7287Y-5.4366
X4.7319Y-5.1157
X4.7685Y-4.0835
T2
X1.8445Y-4.6909
X1.8445Y-4.7909
X1.8445Y-4.8909
X1.8445Y-4.9909
X1.8445Y-5.0909
X1.8445Y-5.1909
X1.8445Y-5.2909
X1.8445Y-5.3909
X2.54Y-3.5563
X2.5657Y-5.3021
X2.5657Y-5.4021
X2.5657Y-5.5021
X2.5657Y-5.6021
X2.64Y-3.5563
X2.74Y-3.5563
X2.84Y-3.5563
X2.8998Y-1.6563
X2.94Y-3.5563
X2.9998Y-1.6563
X3.04Y-3.5563
X3.0998Y-1.6563
X3.14Y-3.5563
X3.1449Y-4.7047
X3.1998Y-1.6563
X3.24Y-3.5563
X3.2449Y-4.7047
X3.2998Y-1.6563
X3.34Y-3.5563
X3.3449Y-4.7047
X3.3998Y-1.6563
X3.44Y-3.5563
X3.4449Y-4.7047
X3.4998Y-1.6563
X3.5998Y-1.6563
X3.5998Y-3.5563
X3.6998Y-3.5563
X3.7998Y-1.6563
X3.7998Y-3.5563
X3.8998Y-1.6563
X3.8998Y-3.5563
X3.9672Y-5.3028
X3.9672Y-5.4028
X3.9672Y-5.5028
X3.9672Y-5.6028
X3.9998Y-1.6563
X3.9998Y-3.5563
X4.0998Y-1.6563
X4.0998Y-3.5563
X4.1998Y-1.6563
X4.1998Y-3.5563
X4.2998Y-1.6563
X4.2998Y-3.5563
T3
X2.1053Y-1.252
X2.1053Y-1.4291
X2.3612Y-1.252
X2.3612Y-1.4291
X2.5079Y-1.249
X2.5079Y-1.4262
X2.7638Y-1.249
X2.7638Y-1.4262
T0
M30
